<?xml version="1.0" standalone="no"?>
<!DOCTYPE svg PUBLIC "-//W3C//DTD SVG 20010904//EN"
 "http://www.w3.org/TR/2001/REC-SVG-20010904/DTD/svg10.dtd">
<svg version="1.0" xmlns="http://www.w3.org/2000/svg"
 width="392.000000pt" height="385.000000pt" viewBox="0 0 392.000000 385.000000"
 preserveAspectRatio="xMidYMid meet">
<metadata>
Created by potrace 1.16, written by Peter Selinger 2001-2019
</metadata>
<g transform="translate(0.000000,385.000000) scale(0.100000,-0.100000)"
fill="#000000" stroke="none">
<path d="M1344 3012 c-47 -31 -27 -96 29 -90 25 2 33 8 35 27 7 48 -31 86 -64
63z"/>
<path d="M2800 2985 c-16 -20 -5 -62 21 -75 43 -24 92 43 57 78 -17 17 -63 15
-78 -3z"/>
<path d="M1048 2948 c-24 -8 -28 -15 -28 -48 0 -44 18 -60 69 -60 52 0 68 54
26 95 -27 28 -28 28 -67 13z"/>
<path d="M3106 2891 c-25 -28 -17 -72 16 -91 25 -13 30 -13 55 2 31 18 41 55
23 88 -14 27 -70 27 -94 1z"/>
<path d="M1521 2834 c-25 -32 -26 -52 -5 -82 19 -28 53 -28 88 -1 33 26 33 44
-3 80 -36 36 -54 36 -80 3z"/>
<path d="M2614 2852 c-19 -13 -35 -52 -29 -71 3 -11 17 -27 31 -36 24 -15 27
-15 57 3 27 16 32 24 30 52 -2 48 -52 77 -89 52z"/>
<path d="M1222 2735 c-50 -42 -46 -110 10 -149 31 -22 58 -20 99 8 42 29 55
71 35 111 -31 60 -94 73 -144 30z"/>
<path d="M2884 2737 c-27 -13 -54 -57 -54 -88 0 -35 40 -87 73 -93 53 -11 117
43 117 97 0 28 -55 83 -90 89 -14 3 -35 0 -46 -5z"/>
<path d="M2380 2693 c-65 -24 -81 -103 -31 -154 62 -62 151 -21 151 70 0 34
-26 66 -66 81 -28 11 -32 11 -54 3z"/>
<path d="M1754 2676 c-99 -43 -79 -176 26 -176 33 0 48 6 71 29 48 48 34 112
-31 146 -34 18 -27 18 -66 1z"/>
<path d="M947 2622 c-22 -24 -22 -68 0 -81 26 -14 73 13 73 43 0 23 -28 56
-47 56 -5 0 -17 -8 -26 -18z"/>
<path d="M3199 2606 c-33 -16 -35 -38 -6 -71 23 -27 24 -28 50 -10 34 22 35
57 4 78 -19 13 -28 13 -48 3z"/>
<path d="M1449 2491 c-35 -34 -39 -44 -39 -88 0 -41 5 -54 28 -77 33 -31 92
-50 125 -40 29 8 77 53 88 82 13 34 -7 100 -41 134 -23 23 -37 28 -75 28 -42
0 -52 -5 -86 -39z"/>
<path d="M2603 2510 c-48 -19 -79 -102 -58 -153 23 -56 57 -79 116 -79 45 0
55 4 86 34 29 30 35 42 35 81 1 28 -6 56 -16 72 -30 46 -108 67 -163 45z"/>
<path d="M2060 2462 c-39 -11 -56 -24 -74 -59 -33 -65 -10 -139 54 -168 100
-45 197 33 170 136 -20 74 -79 109 -150 91z"/>
<path d="M1110 2447 c-29 -10 -36 -17 -38 -45 -4 -44 21 -72 65 -72 27 0 35 5
43 26 15 37 12 50 -12 78 -21 23 -26 24 -58 13z"/>
<path d="M3008 2413 c-26 -31 -28 -51 -6 -80 12 -15 23 -30 25 -32 1 -2 16 2
33 9 54 22 67 77 25 104 -32 21 -58 20 -77 -1z"/>
<path d="M2308 2278 c-56 -34 -76 -58 -88 -109 -11 -45 -10 -53 11 -97 43 -85
131 -116 216 -76 58 28 83 71 83 143 0 60 -1 63 -45 106 -30 30 -54 45 -72 46
-16 1 -38 3 -50 4 -12 1 -37 -7 -55 -17z"/>
<path d="M1709 2256 c-74 -51 -98 -134 -60 -203 34 -59 83 -88 151 -88 59 1
89 16 125 64 26 34 32 119 11 159 -43 83 -157 117 -227 68z"/>
<path d="M1294 2240 c-29 -11 -64 -58 -64 -84 0 -22 34 -86 47 -87 73 -7 86
-3 114 29 48 55 32 116 -37 142 -29 12 -32 12 -60 0z"/>
<path d="M2794 2228 c-53 -25 -58 -100 -11 -146 35 -34 60 -39 102 -20 58 26
66 97 17 151 -27 29 -68 35 -108 15z"/>
<path d="M2065 2011 c-108 -16 -180 -125 -152 -231 26 -98 137 -165 230 -139
93 27 142 92 140 185 -2 88 -54 157 -136 181 -23 7 -42 12 -42 11 0 0 -18 -4
-40 -7z"/>
<path d="M1501 1933 c-70 -25 -93 -98 -57 -184 4 -8 26 -25 50 -36 43 -21 74
-21 127 1 21 9 49 69 49 105 0 55 -19 86 -66 109 -51 25 -46 25 -103 5z"/>
<path d="M2605 1944 c-5 -1 -23 -5 -38 -9 -43 -9 -87 -62 -87 -103 0 -121 129
-177 213 -94 21 21 31 42 34 74 5 40 2 49 -26 80 -30 34 -74 58 -96 52z"/>
<path d="M1700 1701 c-46 -25 -67 -48 -83 -96 -33 -98 42 -205 143 -205 20 0
56 10 80 23 112 56 108 221 -6 277 -50 25 -88 25 -134 1z"/>
<path d="M2325 1662 c-52 -20 -74 -37 -94 -77 -28 -56 -27 -99 4 -152 64 -108
232 -99 281 15 30 70 -4 174 -65 202 -31 14 -101 21 -126 12z"/>
<path d="M1267 1607 c-20 -16 -30 -34 -34 -64 -5 -37 -2 -46 25 -73 34 -33 67
-38 111 -15 61 31 60 129 -1 160 -42 21 -68 19 -101 -8z"/>
<path d="M2789 1597 c-42 -32 -53 -113 -19 -147 46 -46 129 -28 155 34 17 40
12 60 -23 99 -28 30 -83 37 -113 14z"/>
<path d="M1988 1394 c-69 -37 -76 -142 -14 -201 13 -12 44 -24 69 -28 42 -7
47 -5 86 30 38 35 41 41 41 91 0 45 -5 59 -31 89 -27 31 -37 35 -78 35 -25 -1
-58 -7 -73 -16z"/>
<path d="M1474 1391 c-38 -17 -74 -70 -74 -109 0 -77 71 -141 142 -128 50 9
96 61 104 116 5 41 3 48 -28 83 -27 30 -42 38 -78 42 -25 3 -54 1 -66 -4z"/>
<path d="M2570 1362 c-30 -31 -46 -86 -36 -126 3 -14 18 -38 32 -55 22 -27 32
-31 74 -31 65 0 93 14 120 62 28 50 21 95 -22 143 -27 32 -35 35 -85 35 -47 0
-59 -4 -83 -28z"/>
<path d="M1077 1342 c-48 -53 19 -126 84 -92 25 14 26 71 1 93 -24 22 -65 21
-85 -1z"/>
<path d="M3002 1334 c-27 -18 -29 -65 -5 -89 17 -17 77 -16 94 2 19 21 18 51
-2 76 -23 30 -54 34 -87 11z"/>
<path d="M1701 1154 c-21 -26 -27 -76 -15 -109 9 -24 77 -55 105 -48 44 11 69
43 69 88 0 65 -29 95 -90 95 -41 0 -52 -4 -69 -26z"/>
<path d="M928 1146 c-35 -26 -11 -86 34 -86 13 0 29 5 36 12 29 29 3 87 -38
87 -8 0 -23 -6 -32 -13z"/>
<path d="M2337 1136 c-53 -49 -44 -120 20 -150 50 -24 99 -7 119 40 21 49 17
72 -15 105 -38 37 -87 39 -124 5z"/>
<path d="M3177 1122 c-25 -27 -21 -60 7 -74 31 -14 53 -5 68 27 9 21 8 28 -7
45 -23 25 -47 26 -68 2z"/>
<path d="M1209 1095 c-31 -17 -40 -43 -32 -91 11 -69 93 -97 153 -52 63 46 21
158 -58 158 -21 -1 -49 -7 -63 -15z"/>
<path d="M2853 1084 c-29 -22 -33 -32 -33 -70 0 -89 88 -127 151 -65 49 50 37
121 -26 147 -46 19 -55 18 -92 -12z"/>
<path d="M1500 925 c-20 -21 -22 -30 -14 -52 5 -15 21 -34 35 -42 24 -13 29
-13 59 9 27 19 31 27 26 53 -3 17 -11 36 -17 44 -18 21 -63 15 -89 -12z"/>
<path d="M2587 912 c-32 -35 -16 -93 29 -106 30 -9 74 28 74 63 0 54 -68 82
-103 43z"/>
<path d="M1019 842 c-28 -20 -25 -66 7 -91 24 -19 28 -19 54 -6 16 8 31 23 35
34 6 21 -3 70 -14 72 -30 6 -66 3 -82 -9z"/>
<path d="M3076 844 c-20 -51 9 -94 62 -94 48 0 71 60 36 94 -21 21 -90 21 -98
0z"/>
<path d="M1310 752 c-19 -16 -20 -20 -9 -45 18 -39 57 -47 80 -16 23 30 23 35
-1 59 -25 25 -41 25 -70 2z"/>
<path d="M2789 741 c-20 -16 -22 -23 -14 -47 12 -32 42 -42 74 -24 26 13 28
58 4 76 -24 18 -37 17 -64 -5z"/>
</g>
</svg>
